HIERARCHY
ROOT root
{
	OFFSET 0.000000 0.000000 0.000000
	CHANNELS 6 Xposition Yposition Zposition Zrotation Yrotation Xrotation
	JOINT lhip
	{
		OFFSET 0.058581 -0.082280 -0.017664
		CHANNELS 3 Zrotation Yrotation Xrotation
		JOINT lknee
		{
			OFFSET 0.043451 -0.386469 0.008037
			CHANNELS 3 Zrotation Yrotation Xrotation
			JOINT lankle
			{
				OFFSET -0.014790 -0.426874 -0.037428
				CHANNELS 3 Zrotation Yrotation Xrotation
				JOINT ltoe
				{
					OFFSET 0.041054 -0.060286 0.122042
					CHANNELS 3 Zrotation Yrotation Xrotation
					End Site
					{
						OFFSET 0.000000 0.000000 0.000000
					}
				}
			}
		}
	}
	JOINT rhip
	{
		OFFSET -0.060310 -0.090513 -0.013543
		CHANNELS 3 Zrotation Yrotation Xrotation
		JOINT rknee
		{
			OFFSET -0.043257 -0.383688 -0.004843
			CHANNELS 3 Zrotation Yrotation Xrotation
			JOINT rankle
			{
				OFFSET 0.019056 -0.420046 -0.034562
				CHANNELS 3 Zrotation Yrotation Xrotation
				JOINT rtoe
				{
					OFFSET -0.034840 -0.062106 0.130323
					CHANNELS 3 Zrotation Yrotation Xrotation
					End Site
					{
						OFFSET 0.000000 0.000000 0.000000
					}
				}
			}
		}
	}
	JOINT lowerback
	{
		OFFSET 0.004439 0.124404 -0.038385
		CHANNELS 3 Zrotation Yrotation Xrotation
		JOINT upperback
		{
			OFFSET 0.004488 0.137956 0.026820
			CHANNELS 3 Zrotation Yrotation Xrotation
			JOINT chest
			{
				OFFSET -0.002265 0.056032 0.002855
				CHANNELS 3 Zrotation Yrotation Xrotation
				JOINT lowerneck
				{
					OFFSET -0.013390 0.211636 -0.033468
					CHANNELS 3 Zrotation Yrotation Xrotation
					JOINT upperneck
					{
						OFFSET 0.010113 0.088937 0.050410
						CHANNELS 3 Zrotation Yrotation Xrotation
						End Site
						{
							OFFSET 0.000000 0.000000 0.000000
						}
					}
				}
				JOINT lclavicle
				{
					OFFSET 0.071702 0.114000 -0.018898
					CHANNELS 3 Zrotation Yrotation Xrotation
					JOINT lshoulder
					{
						OFFSET 0.122921 0.045205 -0.019046
						CHANNELS 3 Zrotation Yrotation Xrotation
						JOINT lelbow
						{
							OFFSET 0.255332 -0.015649 -0.022946
							CHANNELS 3 Zrotation Yrotation Xrotation
							JOINT lwrist
							{
								OFFSET 0.265709 0.012698 -0.007375
								CHANNELS 3 Zrotation Yrotation Xrotation
								End Site
								{
									OFFSET 0.000000 0.000000 0.000000
								}
							}
						}
					}
				}
				JOINT rclavicle
				{
					OFFSET -0.082954 0.112472 -0.023707
					CHANNELS 3 Zrotation Yrotation Xrotation
					JOINT rshoulder
					{
						OFFSET -0.113228 0.046853 -0.008472
						CHANNELS 3 Zrotation Yrotation Xrotation
						JOINT relbow
						{
							OFFSET -0.260127 -0.014369 -0.031269
							CHANNELS 3 Zrotation Yrotation Xrotation
							JOINT rwrist
							{
								OFFSET -0.269108 0.006794 -0.006027
								CHANNELS 3 Zrotation Yrotation Xrotation
								End Site
								{
									OFFSET 0.000000 0.000000 0.000000
								}
							}
						}
					}
				}
			}
		}
	}
}
MOTION
Frames: 10
Frame Time: 0.033333
0.456014 0.186784 0.998677 84.736739 2.978407 99.109197 4.405568 4.060522 -9.336734 3.857903 3.349955 -3.668480 -2.121841 7.579176 -2.407977 0.000000 -0.000000 0.000000 -2.680257 -1.534053 -13.998611 -2.216195 3.886333 2.546389 8.236622 -6.351887 -1.821217 0.000000 -0.000000 0.000000 1.040146 -0.487659 4.671224 2.600102 -5.561041 -7.506937 0.960318 3.623836 -7.245083 -4.029670 -16.382285 -3.536838 5.420027 -4.825301 -6.808486 -2.414017 -16.541293 -6.065044 -49.672925 -22.145840 24.870322 22.444397 -84.613071 3.689511 2.584951 -11.856311 -34.487120 -4.408370 10.988144 -9.971028 -2.307502 31.102159 -28.502096 -100.831680 50.705040 -87.414252 -40.258469 15.371576 3.613227 
0.455496 0.187596 0.999123 84.408526 2.965146 99.614318 4.270672 4.407542 -9.569815 3.927880 3.755804 -4.265195 -2.402982 7.238875 -2.001609 0.000000 -0.000000 0.000000 -2.692627 -1.783334 -14.484768 -2.145713 4.162513 2.120460 8.346555 -6.274486 -1.422360 0.000000 -0.000000 0.000000 1.227456 0.404487 4.225387 1.894135 -4.694200 -6.470424 0.430640 4.948868 -7.973771 -4.037957 -18.875884 -3.539484 6.458693 -7.641474 -7.099654 -2.807652 -18.945665 -6.273237 -48.680617 -23.776075 25.413528 24.005257 -84.753302 2.322751 4.098695 -12.403410 -35.314483 -4.685294 13.192105 -9.903231 -6.154692 29.509356 -33.430460 -97.468260 44.155744 -82.340286 -45.667618 20.124682 8.775370 
0.455870 0.188427 0.998310 83.552876 3.214855 99.548618 4.429827 5.111952 -9.079754 3.935071 3.933439 -4.836530 -2.749321 7.464133 -2.023964 0.000000 -0.000000 0.000000 -2.532850 -1.959612 -14.416613 -1.927308 4.858322 1.677768 8.406779 -6.060766 -0.817712 0.000000 -0.000000 0.000000 0.747629 1.456593 2.769158 1.454717 -3.663870 -3.723841 0.323253 6.274935 -8.977628 -5.037114 -21.092111 -1.796322 7.611783 -10.799663 -7.858540 -4.629818 -21.471054 -5.963348 -47.756460 -26.177984 25.886800 18.139732 -82.908091 5.840402 4.130383 -12.989963 -35.006492 -3.051019 16.252414 -7.659857 -6.310470 26.459481 -33.385477 -84.479286 41.026225 -67.808620 -43.048052 23.499706 12.781428 
0.457485 0.188748 0.996559 82.785635 3.509468 99.013626 4.760753 6.100114 -8.159535 3.759203 2.938973 -5.171071 -3.210876 8.701769 -2.589324 0.000000 -0.000000 0.000000 -2.263059 -2.042278 -13.936397 -1.677523 6.132233 1.614469 7.754527 -6.545032 -0.558354 0.000000 -0.000000 0.000000 0.337014 1.723234 1.798590 1.386181 -3.084664 -2.110532 0.498082 6.284398 -9.401030 -6.253570 -21.452310 0.607603 7.974634 -10.925150 -7.743940 -6.230593 -21.018092 -6.116345 -47.441470 -27.805890 26.073848 2.335153 -81.568472 17.138369 4.229967 -11.342636 -32.603820 -1.577194 16.160922 -6.346577 -5.634104 26.721358 -30.199728 -58.056853 40.395497 -47.870743 -39.857819 19.994387 10.694535 
0.460349 0.188492 0.995720 82.160150 3.727811 98.125199 5.063379 7.056679 -6.644914 3.628533 1.280485 -5.710755 -3.881934 10.734942 -3.316082 0.000000 -0.000000 0.000000 -1.985909 -2.327023 -12.953240 -1.472360 7.710918 1.578585 6.642367 -7.304396 -0.166491 0.000000 -0.000000 0.000000 0.210507 1.497191 1.538416 0.820203 -2.460501 -1.585736 0.818595 5.608788 -9.345357 -6.168427 -21.147617 2.650738 6.624258 -9.638800 -7.125831 -6.884474 -18.578508 -7.959146 -48.380662 -28.797343 26.846617 -20.260919 -79.752971 34.073822 3.401787 -9.295669 -27.930998 -2.663613 15.456955 -6.371551 -6.992960 28.492571 -26.398218 -21.394301 29.522773 -27.840950 -25.128008 11.840047 3.668916 
0.463165 0.187860 0.994737 81.961259 4.071227 97.267444 5.546792 9.095756 -5.692832 3.476705 -2.360110 -5.582966 -5.008102 13.469231 -4.235864 0.000000 -0.000000 0.000000 -1.289176 -3.061937 -11.956940 -1.340855 11.249743 1.560328 5.304511 -10.247529 0.024084 0.000000 -0.000000 0.000000 0.289240 1.029671 1.230507 0.134960 -2.429138 -2.251763 1.298357 5.832483 -7.378833 -7.298348 -22.482350 4.834296 6.690231 -6.851707 -7.489426 -8.073790 -17.773362 -8.453228 -46.382710 -29.783051 25.073149 -46.641148 -77.564708 55.480325 8.512990 -2.603106 -24.816866 -5.307922 15.090525 -4.676885 -11.021802 29.542230 -27.836765 2.314293 15.729153 -25.542316 -35.702013 -0.522908 -3.030260 
0.465298 0.186332 0.995452 82.420594 4.070543 96.669961 6.002008 8.800130 -4.861909 3.155883 -2.095491 -5.584494 -4.141553 12.849445 -3.718004 0.000000 -0.000000 0.000000 -1.154029 -2.722447 -11.091602 -1.526420 11.042505 1.773726 4.812394 -10.813016 0.085030 0.000000 -0.000000 0.000000 -0.264195 0.839500 1.293509 -0.235227 -2.634598 -2.217317 1.015816 5.806455 -7.195206 -6.014407 -20.792753 6.054139 6.349666 -7.191719 -7.313125 -6.620337 -17.102133 -7.632923 -47.123407 -30.679272 26.893827 -41.529309 -79.125203 51.230328 3.914612 -3.605032 -28.057340 -6.950067 14.641672 -4.162997 -1.706915 33.123946 -22.571161 -5.223206 7.374174 -34.561795 -24.314726 -13.599852 -17.124448 
0.467751 0.185059 0.996873 83.507514 3.959645 96.623739 6.117856 7.769037 -4.778120 3.063990 -1.213947 -5.400172 -3.515519 11.718508 -3.748349 0.000000 -0.000000 0.000000 -1.405872 -2.456026 -10.694553 -1.492206 9.043435 2.173310 4.878969 -9.865523 -0.188719 0.000000 -0.000000 0.000000 -1.134000 0.662441 0.784633 0.253425 -2.895720 -1.393275 0.895514 5.111826 -8.146377 -5.209947 -18.748674 6.866369 5.169069 -7.860547 -6.857214 -5.284627 -15.871003 -8.044371 -48.578910 -30.633646 28.588736 -37.483487 -79.177421 48.011131 0.321595 -6.774850 -29.428310 -6.300057 14.558755 -5.405240 1.733305 34.466981 -19.049191 -8.499056 3.940216 -33.146693 -14.833400 -10.266200 -19.412256 
0.470602 0.185075 0.996694 84.914403 4.015269 96.776230 6.217605 7.151804 -4.901915 3.118035 -1.688515 -5.520404 -2.896475 11.537408 -3.807918 0.000000 -0.000000 0.000000 -1.413865 -2.874480 -10.366489 -1.396449 8.421756 2.276335 4.484361 -9.951485 -0.497974 0.000000 -0.000000 0.000000 -1.634101 0.577745 0.534961 1.308938 -3.309628 -1.606630 1.033094 4.584328 -8.035433 -7.125345 -19.389254 7.250613 5.219655 -5.538000 -5.582449 -5.704941 -14.590444 -8.218598 -48.398252 -30.909412 29.371369 -41.758394 -78.937556 52.243823 1.136881 -4.252223 -29.624701 -3.642835 11.851519 -7.991330 -3.997900 36.429478 -25.631634 -7.015870 2.509770 -34.608594 -12.133623 -12.722742 -14.872340 
0.473157 0.186221 0.996596 86.547501 3.961859 96.921570 6.203304 6.367814 -4.925905 3.166635 -1.591272 -5.927221 -3.030541 10.692764 -3.649892 0.000000 -0.000000 0.000000 -1.645242 -2.864853 -9.906026 -1.403764 6.993397 2.253737 4.731993 -9.937605 -0.937096 0.000000 -0.000000 0.000000 -1.250098 0.511800 1.033342 1.260589 -3.584871 -2.598503 1.162762 3.963529 -7.848432 -8.046606 -19.457542 8.292389 5.287187 -4.711421 -5.544708 -5.406530 -13.825509 -8.689748 -49.005856 -30.019827 31.305654 -35.931199 -79.384433 46.299582 1.601197 -4.849707 -29.648277 -5.683811 10.233191 -9.811605 -3.830591 33.649088 -23.237852 -10.431330 9.602235 -38.186414 -6.643650 -7.246287 -22.009895 
